<svg xmlns="http://www.w3.org/2000/svg" viewBox="20 161.50685210417475 535.0034419584697 251.9862957916505"><rect height="100%" width="100%" x="20" y="161.50685210417475" fill="rgba(1, 102, 255, 1)"/> <svg xmlns="http://www.w3.org/2000/svg" viewBox="0 0 223.14 266.31" height="111.98629579165046" width="93.82503850998258" y="231.50685210417475" x="90" preserveAspectRatio="xMinYMin" style="overflow: visible;"><path id="Layer_2" dataName="Layer 2" class="cls-1" d="M180,67.71c42.78,26,83,27.4,91.26,27.4,1,0,1.54,0,1.54,0S288.32,231.14,180,292.29C71.68,231.14,87.2,95.08,87.2,95.08s.53,0,1.54,0c8.24,0,48.48-1.42,91.26-27.4m0-21.06-9.34,5.67C131.82,75.91,95.6,77.11,88.74,77.11h-.85l-16.81-.81L69.32,93c-.17,1.52-4.12,37.61,6.13,81.78,6.07,26.22,15.91,50,29.23,70.62A188.62,188.62,0,0,0,171.15,308l8.85,5,8.85-5a188.62,188.62,0,0,0,66.47-62.53c13.32-20.65,23.16-44.4,29.23-70.62,10.25-44.17,6.3-80.26,6.13-81.78L288.77,76.3l-16.65.8h-.86c-6.86,0-43.08-1.2-81.92-24.79L180,46.65Z" transform="translate(-68.43 -46.65)" style="fill: #ffffff; fill-opacity: 1;"></path><path id="Layer_2" dataName="Layer 2" class="cls-1" d="M180,134.58a22.37,22.37,0,0,1,9.72,42.52v23.46H170.3V177.12a22.38,22.38,0,0,1,9.7-42.54m0-18a40.34,40.34,0,0,0-27.7,69.7v32.28h55.42V186.27A40.35,40.35,0,0,0,180,116.58Z" transform="translate(-68.43 -46.65)" style="fill: #ffffff; fill-opacity: 1;"></path></svg> <svg xmlns="http://www.w3.org/2000/svg" x="221.28344073776657" y="267.50898551037574" viewBox="2.119999885559082 21.5 263.7200012207031 36.36000061035156" height="36.36000061035156" width="263.7200012207031" style="overflow: visible;"><g fill="#ffffff" fill-opacity="1" style=""><path d="M14.16 27.01L14.16 27.01Q7.74 27.01 7.74 31.51L7.74 31.51Q7.74 33.84 9.26 34.82Q10.77 35.81 15.96 37.25Q21.14 38.69 23.27 40.69Q25.39 42.69 25.39 46.99L25.39 46.99Q25.39 52.45 22.28 55.16Q19.17 57.86 13.81 57.86L13.81 57.86Q9.51 57.86 4.30 56.85L4.30 56.85L2.48 56.50L3.03 51.99Q9.86 52.91 13.45 52.91L13.45 52.91Q19.73 52.91 19.73 47.34L19.73 47.34Q19.73 45.17 18.31 44.13Q16.89 43.09 11.94 41.85Q6.98 40.61 4.55 38.44Q2.12 36.26 2.12 31.56Q2.12 26.86 5.18 24.45Q8.24 22.05 13.66 22.05L13.66 22.05Q17.55 22.05 22.86 22.96L22.86 22.96L24.63 23.27L24.18 27.82Q17.10 27.01 14.16 27.01ZM48.81 52.75L48.81 52.75L50.22 52.60L50.33 56.70Q44.56 57.86 40.11 57.86L40.11 57.86Q34.49 57.86 32.04 54.78Q29.59 51.69 29.59 44.91L29.59 44.91Q29.59 31.46 40.56 31.46L40.56 31.46Q51.19 31.46 51.19 43.04L51.19 43.04L50.83 46.99L35.15 46.99Q35.20 50.12 36.52 51.59Q37.83 53.06 41.42 53.06Q45.01 53.06 48.81 52.75ZM35.10 42.74L45.77 42.74Q45.77 39.00 44.58 37.50Q43.40 36.01 40.56 36.01Q37.73 36.01 36.44 37.58Q35.15 39.15 35.10 42.74L35.10 42.74ZM65.95 31.46L65.95 31.46Q68.63 31.46 72.28 32.17L72.28 32.17L73.54 32.42L73.34 36.77Q69.34 36.37 67.42 36.37L67.42 36.37Q63.58 36.37 62.26 38.09Q60.95 39.81 60.95 44.56Q60.95 49.31 62.21 51.13Q63.48 52.96 67.47 52.96L67.47 52.96L73.39 52.55L73.54 56.95Q68.43 57.86 65.85 57.86L65.85 57.86Q60.09 57.86 57.74 54.75Q55.38 51.64 55.38 44.56Q55.38 37.48 57.86 34.47Q60.34 31.46 65.95 31.46ZM94.18 51.64L94.18 32.02L99.64 32.02L99.64 57.31L94.18 57.31L94.18 55.74Q90.48 57.86 87.35 57.86L87.35 57.86Q82.14 57.86 80.37 55.05Q78.60 52.25 78.60 45.22L78.60 45.22L78.60 32.02L84.11 32.02L84.11 45.27Q84.11 49.82 84.87 51.39Q85.63 52.96 88.41 52.96L88.41 52.96Q91.14 52.96 93.42 51.94L93.42 51.94L94.18 51.64ZM111.83 57.31L106.32 57.31L106.32 32.02L111.78 32.02L111.78 35.05Q116.08 32.27 120.38 31.46L120.38 31.46L120.38 36.97Q116.03 37.83 112.94 39.20L112.94 39.20L111.83 39.65L111.83 57.31ZM142.38 52.75L142.38 52.75L143.79 52.60L143.90 56.70Q138.13 57.86 133.68 57.86L133.68 57.86Q128.06 57.86 125.61 54.78Q123.16 51.69 123.16 44.91L123.16 44.91Q123.16 31.46 134.13 31.46L134.13 31.46Q144.76 31.46 144.76 43.04L144.76 43.04L144.40 46.99L128.72 46.99Q128.77 50.12 130.09 51.59Q131.40 53.06 134.99 53.06Q138.59 53.06 142.38 52.75ZM128.67 42.74L139.34 42.74Q139.34 39.00 138.16 37.50Q136.97 36.01 134.13 36.01Q131.30 36.01 130.01 37.58Q128.72 39.15 128.67 42.74L128.67 42.74ZM160.89 27.01L160.89 27.01Q154.47 27.01 154.47 31.51L154.47 31.51Q154.47 33.84 155.98 34.82Q157.50 35.81 162.69 37.25Q167.87 38.69 169.99 40.69Q172.12 42.69 172.12 46.99L172.12 46.99Q172.12 52.45 169.01 55.16Q165.90 57.86 160.54 57.86L160.54 57.86Q156.24 57.86 151.03 56.85L151.03 56.85L149.21 56.50L149.76 51.99Q156.59 52.91 160.18 52.91L160.18 52.91Q166.45 52.91 166.45 47.34L166.45 47.34Q166.45 45.17 165.04 44.13Q163.62 43.09 158.66 41.85Q153.71 40.61 151.28 38.44Q148.85 36.26 148.85 31.56Q148.85 26.86 151.91 24.45Q154.97 22.05 160.38 22.05L160.38 22.05Q164.28 22.05 169.59 22.96L169.59 22.96L171.36 23.27L170.90 27.82Q163.82 27.01 160.89 27.01ZM190.78 32.02L190.78 36.72L183.80 36.72L183.80 47.85Q183.80 50.93 184.26 51.94Q184.71 52.96 186.58 52.96L186.58 52.96L190.73 52.80L190.98 57.20Q187.60 57.86 185.83 57.86L185.83 57.86Q181.53 57.86 179.93 55.89Q178.34 53.92 178.34 48.45L178.34 48.45L178.34 36.72L175.10 36.72L175.10 32.02L178.34 32.02L178.34 24.68L183.80 24.68L183.80 32.02L190.78 32.02ZM214.00 39.81L214.00 39.81L214.00 51.34Q214.05 52.45 214.58 52.98Q215.11 53.51 216.22 53.66L216.22 53.66L216.07 57.86Q211.72 57.86 209.34 55.99L209.34 55.99Q205.30 57.86 201.20 57.86L201.20 57.86Q193.66 57.86 193.66 49.82L193.66 49.82Q193.66 45.98 195.71 44.26Q197.76 42.54 202.01 42.18L202.01 42.18L208.54 41.63L208.54 39.81Q208.54 37.78 207.65 36.97Q206.76 36.16 205.05 36.16L205.05 36.16Q201.81 36.16 196.95 36.57L196.95 36.57L195.33 36.67L195.13 32.77Q200.64 31.46 205.27 31.46Q209.90 31.46 211.95 33.46Q214.00 35.46 214.00 39.81ZM208.54 45.52L202.67 46.08Q199.18 46.38 199.18 49.87Q199.18 53.36 202.26 53.36L202.26 53.36Q204.79 53.36 207.62 52.55L207.62 52.55L208.54 52.25L208.54 45.52ZM238.58 32.62L238.48 37.23Q232.51 36.42 229.83 36.42Q227.15 36.42 226.11 37.05Q225.07 37.68 225.07 39.05Q225.07 40.41 226.21 40.97Q227.35 41.52 231.57 42.26Q235.80 42.99 237.57 44.56Q239.34 46.13 239.34 50.12Q239.34 54.12 236.78 55.99Q234.23 57.86 229.32 57.86L229.32 57.86Q226.24 57.86 221.53 57.00L221.53 57.00L219.97 56.75L220.17 52.15Q226.24 52.96 228.92 52.96Q231.60 52.96 232.74 52.30Q233.87 51.64 233.87 50.12Q233.87 48.61 232.79 48.02Q231.70 47.44 227.58 46.76Q223.46 46.08 221.53 44.61Q219.61 43.14 219.61 39.25Q219.61 35.35 222.27 33.43Q224.92 31.51 229.07 31.51L229.07 31.51Q232.31 31.51 237.01 32.32L237.01 32.32L238.58 32.62ZM250.16 37.48L250.16 57.31L244.65 57.31L244.65 21.50L250.16 21.50L250.16 33.33Q253.90 31.46 257.09 31.46L257.09 31.46Q262.15 31.46 263.99 34.32Q265.84 37.18 265.84 43.75L265.84 43.75L265.84 57.31L260.33 57.31L260.33 43.90Q260.33 39.81 259.47 38.09Q258.61 36.37 255.83 36.37L255.83 36.37Q253.40 36.37 250.97 37.18L250.97 37.18L250.16 37.48Z" transform="translate(0, 0)"></path></g></svg></svg>